<?xml version="1.0" encoding="UTF-8" standalone="no"?>
<svg
   height="48px"
   viewBox="0 -960 960 960"
   width="48px"
   fill="#5f6368"
   stroke="#5f6368"
   version="1.1"
   id="svg1"
   sodipodi:docname="contactless_96dp_5F6368_FILL0_wght400_GRAD0_opsz48.svg"
   inkscape:version="1.4 (86a8ad7, 2024-10-11)"
   xmlns:inkscape="http://www.inkscape.org/namespaces/inkscape"
   xmlns:sodipodi="http://sodipodi.sourceforge.net/DTD/sodipodi-0.dtd"
   xmlns="http://www.w3.org/2000/svg"
   xmlns:svg="http://www.w3.org/2000/svg">
  <defs
     id="defs1" />
  <sodipodi:namedview
     id="namedview1"
     pagecolor="#ffffff"
     bordercolor="#000000"
     borderopacity="0.25"
     inkscape:showpageshadow="2"
     inkscape:pageopacity="0.0"
     inkscape:pagecheckerboard="0"
     inkscape:deskcolor="#d1d1d1"
     inkscape:zoom="8.09375"
     inkscape:cx="2.8416988"
     inkscape:cy="37.003861"
     inkscape:window-width="1920"
     inkscape:window-height="991"
     inkscape:window-x="-9"
     inkscape:window-y="-9"
     inkscape:window-maximized="1"
     inkscape:current-layer="svg1" />
  <path
     d="m 322,-385 c 6.66667,-15.33333 12.16667,-30.83333 16.5,-46.5 4.33333,-15.66667 6.5,-31.83333 6.5,-48.5 0,-16.66667 -2,-33 -6,-49 -4,-16 -10,-31.33333 -18,-46 l -56,20 c 7.33333,11.33333 12.5,23.33333 15.5,36 3,12.66667 4.5,25.66667 4.5,39 0,13.33333 -1.83333,26.33333 -5.5,39 -3.66667,12.66667 -8.5,25 -14.5,37 z"
     id="path2"
     sodipodi:nodetypes="csssccssscc"
     style="stroke:none" />
  <path
     d="m 458,-328 c 10.66667,-24 18.33333,-48.83333 23,-74.5 4.66667,-25.66667 7,-51.5 7,-77.5 0,-26 -2.33333,-51.66667 -7,-77 -4.66667,-25.33333 -12.33333,-50 -23,-74 l -57,20 c 10,20.66667 17,42 21,64 4,22 6,44.33333 6,67 0,22.66667 -2.16667,45.16667 -6.5,67.5 -4.33333,22.33333 -11.16667,43.83333 -20.5,64.5 z"
     id="path3"
     sodipodi:nodetypes="csssccssscc"
     style="stroke:none" />
  <path
     d="m 589,-272 c 14.66667,-33.33333 25.33333,-67.33333 32,-102 6.66667,-34.66667 10,-70 10,-106 0,-36 -3.33333,-71.33333 -10,-106 -6.66667,-34.66667 -17.33333,-68.33333 -32,-101 l -56,22 c 13.33333,29.33333 23,59.5 29,90.5 6,31 9,62.5 9,94.5 0,32 -3,63.66667 -9,95 -6,31.33333 -15.66667,61.66667 -29,91 z"
     id="path4"
     sodipodi:nodetypes="csssccssscc"
     style="stroke:none;stroke-width:1.0133334;stroke-dasharray:none" />
  <ellipse
     style="fill:none;fill-opacity:1;stroke-width:58.6666666;stroke-dasharray:none"
     id="path5"
     cx="480.04233"
     cy="-479.95764"
     rx="370.70898"
     ry="370.70901" />
</svg>
