<?xml version="1.0" encoding="UTF-8" standalone="no"?>
<svg
   height="48px"
   viewBox="0 -960 960 960"
   width="48px"
   fill="#5f6368"
   version="1.1"
   id="svg1"
   sodipodi:docname="phonelink_ring_48dp_5F6368_FILL0_wght400_GRAD0_opsz48.svg"
   inkscape:version="1.4 (86a8ad7, 2024-10-11)"
   xmlns:inkscape="http://www.inkscape.org/namespaces/inkscape"
   xmlns:sodipodi="http://sodipodi.sourceforge.net/DTD/sodipodi-0.dtd"
   xmlns="http://www.w3.org/2000/svg"
   xmlns:svg="http://www.w3.org/2000/svg">
  <defs
     id="defs1" />
  <sodipodi:namedview
     id="namedview1"
     pagecolor="#ffffff"
     bordercolor="#000000"
     borderopacity="0.25"
     inkscape:showpageshadow="2"
     inkscape:pageopacity="0.0"
     inkscape:pagecheckerboard="0"
     inkscape:deskcolor="#d1d1d1"
     inkscape:zoom="8.09375"
     inkscape:cx="43.119691"
     inkscape:cy="26.996139"
     inkscape:window-width="1920"
     inkscape:window-height="991"
     inkscape:window-x="-9"
     inkscape:window-y="-9"
     inkscape:window-maximized="1"
     inkscape:current-layer="svg1" />
  <path
     d="m 260,-432 v 332 -760 z m 0,392 c -16.5,0 -30.62333,-5.876667 -42.37,-17.63 C 205.87667,-69.376667 200,-83.5 200,-100 v -760 c 0,-16.5 5.87667,-30.62667 17.63,-42.38 C 229.37667,-914.12667 243.5,-920 260,-920 h 440 c 16.5,0 30.62667,5.87333 42.38,17.62 11.74667,11.75333 17.62,25.88 17.62,42.38 v 80 h -60 v -80 H 260 v 760 h 440 v -80 h 60 v 80 c 0,16.666667 -5.87333,30.833333 -17.62,42.5 C 730.62667,-45.833333 716.5,-40 700,-40 Z m 219,-680 c 8,0 15,-3 21,-9 6,-6 9,-13 9,-21 0,-8 -3,-15 -9,-21 -6,-6 -13,-9 -21,-9 -8,0 -15,3 -21,9 -6,6 -9,13 -9,21 0,8 3,15 9,21 6,6 13,9 21,9 z"
     id="path1"
     sodipodi:nodetypes="ccccscssssscsccccccccscsssssssssss" />
  <path
     d="m 667,-357 -42,-42 c 11.33333,-11.33333 20,-24.09 26,-38.27 6,-14.17333 9,-29.08333 9,-44.73 0,-15.33333 -2.83333,-30.33333 -8.5,-45 -5.66667,-14.66667 -14.16667,-27.66667 -25.5,-39 l 41,-42 c 16.66667,16.66667 29.66667,35.79333 39,57.38 9.33333,21.58667 14,44.08667 14,67.5 0,23.41333 -4.66667,46.12 -14,68.12 -9.33333,22 -22.33333,41.33333 -39,58 z"
     id="path2"
     sodipodi:nodetypes="cccssccsssc" />
  <path
     d="m 751,-273 -41,-42 c 22.25333,-22.15333 39.48333,-47.52667 51.69,-76.12 12.20667,-28.58667 18.31,-58.71333 18.31,-90.38 0,-31.66667 -6.5,-61.83333 -19.5,-90.5 -13,-28.66667 -32.16667,-52.66667 -57.5,-72 l 46,-46 c 29.31333,27.44667 51.80667,59.14333 67.48,95.09 15.68,35.94 23.52,73.91 23.52,113.91 0,40 -7.66667,77.85 -23,113.55 -15.33333,35.70667 -37.33333,67.19 -66,94.45 z"
     id="path3"
     sodipodi:nodetypes="cccsscccscc" />
</svg>
